<svg width="31" height="30" viewBox="0 0 31 30" fill="none" xmlns="http://www.w3.org/2000/svg">
<path fill-rule="evenodd" clip-rule="evenodd" d="M27.125 14.9179C27.125 21.0857 21.9203 26.0858 15.5 26.0858C9.07969 26.0858 3.875 21.0857 3.875 14.9179C3.875 8.75003 9.07969 3.75 15.5 3.75C21.9203 3.75 27.125 8.75003 27.125 14.9179ZM11.4306 9.33397H17.0494C19.2965 9.33397 21.1181 11.084 21.1181 13.2427C21.1181 15.4015 19.2965 17.1515 17.0494 17.1515H13.7556V20.5019H11.4306V9.33397ZM13.7556 14.9179L17.0494 14.9179C18.0124 14.9179 18.7931 14.1679 18.7931 13.2427C18.7931 12.3175 18.0124 11.5676 17.0494 11.5676H13.7556V14.9179Z" fill="#FE6155"/>
</svg>
