<svg width="57" height="58" viewBox="0 0 57 58" fill="none" xmlns="http://www.w3.org/2000/svg">
<g clip-path="url(#clip0_46_2402)">
<g filter="url(#filter0_d_46_2402)">
<rect width="58" height="58" rx="16" fill="#2A314E"/>
<rect x="0.5" y="0.5" width="57" height="57" rx="15.5" stroke="#1E2338"/>
</g>
<path d="M29.7856 19.25L20.418 28.6909L23.3173 31.6129L35.5843 19.25H29.7856Z" fill="#47C5FB"/>
<path d="M29.7207 27.9563L24.7051 33.0112L27.6151 35.9877L30.5091 33.071L35.5847 27.9563H29.7207Z" fill="#47C5FB"/>
<path d="M27.6143 35.9877L29.8173 38.2079H35.5839L30.5083 33.071L27.6143 35.9877Z" fill="#00569E"/>
<path d="M24.6719 33.0434L27.5712 30.1213L30.5086 33.0709L27.6146 35.9875L24.6719 33.0434Z" fill="#00B5F8"/>
<path d="M27.6143 35.9876L30.024 35.1816L30.2635 33.3176L27.6143 35.9876Z" fill="url(#paint0_linear_46_2402)" fill-opacity="0.8"/>
</g>
<defs>
<filter id="filter0_d_46_2402" x="-32" y="-16" width="122" height="122" filterUnits="userSpaceOnUse" color-interpolation-filters="sRGB">
<feFlood flood-opacity="0" result="BackgroundImageFix"/>
<feColorMatrix in="SourceAlpha" type="matrix" values="0 0 0 0 0 0 0 0 0 0 0 0 0 0 0 0 0 0 127 0" result="hardAlpha"/>
<feOffset dy="16"/>
<feGaussianBlur stdDeviation="16"/>
<feColorMatrix type="matrix" values="0 0 0 0 0.215686 0 0 0 0 0.231373 0 0 0 0 0.301961 0 0 0 0.04 0"/>
<feBlend mode="normal" in2="BackgroundImageFix" result="effect1_dropShadow_46_2402"/>
<feBlend mode="normal" in="SourceGraphic" in2="effect1_dropShadow_46_2402" result="shape"/>
</filter>
<linearGradient id="paint0_linear_46_2402" x1="27.6633" y1="34.1924" x2="29.5728" y2="34.8752" gradientUnits="userSpaceOnUse">
<stop/>
<stop offset="1" stop-opacity="0"/>
</linearGradient>
<clipPath id="clip0_46_2402">
<rect width="57" height="58" fill="white"/>
</clipPath>
</defs>
</svg>
