<svg width="57" height="58" viewBox="0 0 57 58" fill="none" xmlns="http://www.w3.org/2000/svg">
<g clip-path="url(#clip0_46_2393)">
<g filter="url(#filter0_d_46_2393)">
<rect width="58" height="58" rx="16" fill="#2A314E"/>
<rect x="0.5" y="0.5" width="57" height="57" rx="15.5" stroke="#1E2338"/>
</g>
<path fill-rule="evenodd" clip-rule="evenodd" d="M25.1083 18.0873C25.9641 17.607 26.9504 17.3333 28.0003 17.3333C29.0502 17.3333 30.0365 17.607 30.8924 18.0873L31.5185 17.4581C31.6842 17.2916 31.9528 17.2916 32.1185 17.4581C32.2842 17.6246 32.2842 17.8945 32.1185 18.061L31.6159 18.566C33.0289 19.657 33.9397 21.3722 33.9397 23.3012H22.0609C22.0609 21.3722 22.9717 19.657 24.3848 18.566L23.8822 18.061C23.7165 17.8945 23.7165 17.6246 23.8822 17.4581C24.0478 17.2916 24.3165 17.2916 24.4821 17.4581L25.1083 18.0873ZM26.3034 20.7435C26.3034 21.2144 25.9235 21.5961 25.4549 21.5961C24.9863 21.5961 24.6064 21.2144 24.6064 20.7435C24.6064 20.2727 24.9863 19.8909 25.4549 19.8909C25.9235 19.8909 26.3034 20.2727 26.3034 20.7435ZM30.5458 21.5961C31.0144 21.5961 31.3943 21.2144 31.3943 20.7435C31.3943 20.2727 31.0144 19.8909 30.5458 19.8909C30.0772 19.8909 29.6973 20.2727 29.6973 20.7435C29.6973 21.2144 30.0772 21.5961 30.5458 21.5961Z" fill="#87C527"/>
<path d="M18.667 25.4326C18.667 24.7263 19.2368 24.1538 19.9397 24.1538C20.6426 24.1538 21.2124 24.7263 21.2124 25.4326V30.548C21.2124 31.2543 20.6426 31.8268 19.9397 31.8268C19.2368 31.8268 18.667 31.2543 18.667 30.548V25.4326Z" fill="#87C527"/>
<path d="M24.6064 35.2371V38.2211C24.6064 38.9274 25.1762 39.4999 25.8791 39.4999C26.582 39.4999 27.1518 38.9274 27.1518 38.2211V35.2371H28.8488V38.2211C28.8488 38.9274 29.4186 39.4999 30.1215 39.4999C30.8244 39.4999 31.3943 38.9274 31.3943 38.2211V35.2371H32.2428C33.18 35.2371 33.9397 34.4737 33.9397 33.532V24.1538H22.0609V33.532C22.0609 34.4737 22.8207 35.2371 23.7579 35.2371H24.6064Z" fill="#87C527"/>
<path d="M34.7882 25.4326C34.7882 24.7263 35.358 24.1538 36.0609 24.1538C36.7638 24.1538 37.3337 24.7263 37.3337 25.4326V30.548C37.3337 31.2543 36.7638 31.8268 36.0609 31.8268C35.358 31.8268 34.7882 31.2543 34.7882 30.548V25.4326Z" fill="#87C527"/>
</g>
<defs>
<filter id="filter0_d_46_2393" x="-32" y="-16" width="122" height="122" filterUnits="userSpaceOnUse" color-interpolation-filters="sRGB">
<feFlood flood-opacity="0" result="BackgroundImageFix"/>
<feColorMatrix in="SourceAlpha" type="matrix" values="0 0 0 0 0 0 0 0 0 0 0 0 0 0 0 0 0 0 127 0" result="hardAlpha"/>
<feOffset dy="16"/>
<feGaussianBlur stdDeviation="16"/>
<feColorMatrix type="matrix" values="0 0 0 0 0.215686 0 0 0 0 0.231373 0 0 0 0 0.301961 0 0 0 0.04 0"/>
<feBlend mode="normal" in2="BackgroundImageFix" result="effect1_dropShadow_46_2393"/>
<feBlend mode="normal" in="SourceGraphic" in2="effect1_dropShadow_46_2393" result="shape"/>
</filter>
<clipPath id="clip0_46_2393">
<rect width="57" height="58" fill="white"/>
</clipPath>
</defs>
</svg>
