<svg width="57" height="58" viewBox="0 0 57 58" fill="none" xmlns="http://www.w3.org/2000/svg">
<g clip-path="url(#clip0_46_2399)">
<g filter="url(#filter0_d_46_2399)">
<rect width="58" height="58" rx="16" fill="#2A314E"/>
<rect x="0.5" y="0.5" width="57" height="57" rx="15.5" stroke="#1E2338"/>
</g>
<path d="M37.9177 35.517C37.5616 36.3322 37.1401 37.0826 36.6517 37.7725C35.9861 38.713 35.441 39.364 35.021 39.7255C34.3699 40.3189 33.6722 40.6228 32.9252 40.6401C32.3889 40.6401 31.7421 40.4889 30.9892 40.1821C30.2339 39.8767 29.5397 39.7255 28.905 39.7255C28.2394 39.7255 27.5254 39.8767 26.7618 40.1821C25.997 40.4889 25.3809 40.6487 24.9099 40.6646C24.1935 40.6948 23.4794 40.3823 22.7667 39.7255C22.3117 39.3323 21.7427 38.6583 21.0611 37.7034C20.3297 36.6836 19.7284 35.5012 19.2574 34.1531C18.7529 32.6969 18.5 31.2869 18.5 29.9218C18.5 28.3581 18.841 27.0094 19.5239 25.8792C20.0607 24.9714 20.7747 24.2553 21.6684 23.7296C22.5622 23.2039 23.5278 22.936 24.5677 22.9188C25.1367 22.9188 25.8829 23.0932 26.8102 23.436C27.7349 23.78 28.3286 23.9544 28.5889 23.9544C28.7835 23.9544 29.4431 23.7504 30.5612 23.3439C31.6185 22.9668 32.5109 22.8107 33.242 22.8722C35.223 23.0306 36.7113 23.8045 37.7011 25.1987C35.9294 26.2624 35.053 27.7524 35.0704 29.6638C35.0864 31.1526 35.6314 32.3916 36.7026 33.3753C37.188 33.8319 37.7302 34.1847 38.3333 34.4353C38.2025 34.8113 38.0645 35.1713 37.9177 35.517V35.517ZM33.3743 17.8001C33.3743 18.967 32.9441 20.0565 32.0865 21.065C31.0517 22.2639 29.8 22.9567 28.4427 22.8474C28.4254 22.7074 28.4154 22.5601 28.4154 22.4052C28.4154 21.285 28.9075 20.0861 29.7814 19.1058C30.2177 18.6095 30.7727 18.1968 31.4456 17.8676C32.1171 17.5433 32.7522 17.364 33.3496 17.3333C33.367 17.4893 33.3743 17.6453 33.3743 17.8V17.8001Z" fill="white"/>
</g>
<defs>
<filter id="filter0_d_46_2399" x="-32" y="-16" width="122" height="122" filterUnits="userSpaceOnUse" color-interpolation-filters="sRGB">
<feFlood flood-opacity="0" result="BackgroundImageFix"/>
<feColorMatrix in="SourceAlpha" type="matrix" values="0 0 0 0 0 0 0 0 0 0 0 0 0 0 0 0 0 0 127 0" result="hardAlpha"/>
<feOffset dy="16"/>
<feGaussianBlur stdDeviation="16"/>
<feColorMatrix type="matrix" values="0 0 0 0 0.215686 0 0 0 0 0.231373 0 0 0 0 0.301961 0 0 0 0.04 0"/>
<feBlend mode="normal" in2="BackgroundImageFix" result="effect1_dropShadow_46_2399"/>
<feBlend mode="normal" in="SourceGraphic" in2="effect1_dropShadow_46_2399" result="shape"/>
</filter>
<clipPath id="clip0_46_2399">
<rect width="57" height="58" fill="white"/>
</clipPath>
</defs>
</svg>
