<svg width="57" height="58" viewBox="0 0 57 58" fill="none" xmlns="http://www.w3.org/2000/svg">
<g clip-path="url(#clip0_46_2396)">
<g filter="url(#filter0_d_46_2396)">
<rect width="58" height="58" rx="16" fill="#2A314E"/>
<rect x="0.5" y="0.5" width="57" height="57" rx="15.5" stroke="#1E2338"/>
</g>
<rect x="18.5" y="18.5" width="21" height="21" fill="#FFCA28"/>
<path d="M31.7014 36.1919L33.2205 35.115C33.3395 35.5157 34.0933 36.4674 35.0456 36.4674C35.9978 36.4674 36.4399 35.9102 36.4399 35.5408C36.4399 34.534 35.4676 34.1791 35.0005 34.0086C34.9244 33.9808 34.8617 33.9579 34.8188 33.9379C34.7969 33.9276 34.7636 33.914 34.7209 33.8966C34.2015 33.6839 32.2852 32.8995 32.2852 30.6257C32.2852 28.1213 34.5411 27.8333 35.0512 27.8333C35.385 27.8333 36.9897 27.8771 37.7889 29.4862L36.3152 30.5882C35.9921 29.8869 35.4553 29.6553 35.1249 29.6553C34.3087 29.6553 34.1387 30.2964 34.1387 30.5882C34.1387 31.407 35.0254 31.774 35.7742 32.0839C35.9701 32.165 36.1565 32.2422 36.3152 32.3225C37.1314 32.7358 38.333 33.412 38.333 35.5408C38.333 36.607 37.4983 38.3332 35.397 38.3332C32.5743 38.3332 31.8261 36.5175 31.7014 36.1919Z" fill="#3E3E3E"/>
<path d="M24.333 36.4058L25.9162 35.3294C26.0403 35.7299 26.5224 36.4684 27.2218 36.4684C27.9213 36.4684 28.2793 35.6986 28.2793 35.3294V28.0701H30.2264V35.3294C30.2579 36.3307 29.7396 38.3333 27.4522 38.3333C25.3491 38.3333 24.4748 36.994 24.333 36.4058Z" fill="#3E3E3E"/>
</g>
<defs>
<filter id="filter0_d_46_2396" x="-32" y="-16" width="122" height="122" filterUnits="userSpaceOnUse" color-interpolation-filters="sRGB">
<feFlood flood-opacity="0" result="BackgroundImageFix"/>
<feColorMatrix in="SourceAlpha" type="matrix" values="0 0 0 0 0 0 0 0 0 0 0 0 0 0 0 0 0 0 127 0" result="hardAlpha"/>
<feOffset dy="16"/>
<feGaussianBlur stdDeviation="16"/>
<feColorMatrix type="matrix" values="0 0 0 0 0.215686 0 0 0 0 0.231373 0 0 0 0 0.301961 0 0 0 0.04 0"/>
<feBlend mode="normal" in2="BackgroundImageFix" result="effect1_dropShadow_46_2396"/>
<feBlend mode="normal" in="SourceGraphic" in2="effect1_dropShadow_46_2396" result="shape"/>
</filter>
<clipPath id="clip0_46_2396">
<rect width="57" height="58" fill="white"/>
</clipPath>
</defs>
</svg>
