<svg width="32" height="31" viewBox="0 0 32 31" fill="none" xmlns="http://www.w3.org/2000/svg">
<path fill-rule="evenodd" clip-rule="evenodd" d="M26.3615 10.4372C26.3706 10.6628 26.3736 10.8884 26.3736 11.114C26.3736 17.9556 21.4004 25.8538 12.3063 25.8538C9.51278 25.8538 6.91518 24.9921 4.72656 23.5254C5.11344 23.5664 5.50635 23.5972 5.90528 23.5972C8.22152 23.5972 10.3549 22.7662 12.0471 21.3712C9.88358 21.3405 8.05673 19.8327 7.42667 17.7812C7.72914 17.8428 8.04063 17.8736 8.35917 17.8736C8.80835 17.8736 9.24447 17.8122 9.66249 17.6891C7.39851 17.2172 5.69326 15.1248 5.69326 12.6118C5.69326 12.581 5.69326 12.5707 5.69326 12.5502C6.36049 12.9297 7.12419 13.1655 7.93512 13.1963C6.60668 12.2629 5.73343 10.6731 5.73343 8.87805C5.73343 7.93439 5.97661 7.04197 6.40469 6.27268C8.84251 9.41139 12.4872 11.4731 16.5962 11.6885C16.5117 11.309 16.4685 10.9091 16.4685 10.509C16.4685 7.64728 18.6822 5.3291 21.4135 5.3291C22.8354 5.3291 24.1196 5.95488 25.021 6.96009C26.1495 6.73443 27.2066 6.30366 28.1632 5.70874C27.7925 6.91909 27.0096 7.93434 25.9867 8.57029C26.9875 8.4472 27.9422 8.17046 28.8275 7.76018C28.1633 8.79615 27.3272 9.7089 26.3615 10.4372Z" fill="#1EA1F2"/>
</svg>
